<svg width="57" height="42" viewBox="0 0 57 42" xmlns="http://www.w3.org/2000/svg">
<path d="M11.1094 4.92773L11.7949 6.93164C10.4004 7.36523 9.43945 8.14453 8.91211 9.26953C8.38477 10.3828 8.12109 11.6602 8.12109 13.1016V16.7402C8.12109 17.9121 7.88086 18.9785 7.40039 19.9395C6.93164 20.8887 6.18164 21.6445 5.15039 22.207C4.13086 22.7695 2.78906 23.0508 1.125 23.0508V20.9062C2.44922 20.9062 3.39844 20.5312 3.97266 19.7812C4.55859 19.0312 4.85156 18.0176 4.85156 16.7402V13.1016C4.85156 11.8711 5.03906 10.7227 5.41406 9.65625C5.80078 8.57813 6.44531 7.63477 7.34766 6.82617C8.26172 6.00586 9.51562 5.37305 11.1094 4.92773ZM11.7949 37.4121L11.1094 39.4336C9.51562 38.9766 8.26172 38.3438 7.34766 37.5352C6.44531 36.7266 5.80078 35.7832 5.41406 34.7051C5.03906 33.6387 4.85156 32.4902 4.85156 31.2598V27.6387C4.85156 26.7832 4.72266 26.0449 4.46484 25.4238C4.20703 24.8027 3.80273 24.3223 3.25195 23.9824C2.71289 23.6309 2.00391 23.4551 1.125 23.4551V21.3105C2.78906 21.3105 4.13086 21.5918 5.15039 22.1543C6.18164 22.7168 6.93164 23.4785 7.40039 24.4395C7.88086 25.3887 8.12109 26.4551 8.12109 27.6387V31.2598C8.12109 32.2207 8.23242 33.1113 8.45508 33.9316C8.68945 34.752 9.07031 35.4609 9.59766 36.0586C10.1367 36.668 10.8691 37.1191 11.7949 37.4121Z"/>
<path d="M21 32.4219V29.5156L30.3438 15.4844H21.2969V12H35.2188V15.125L25.8125 28.9375H35.3438V32.4219H21Z"/>
<path d="M44.3516 6.93164L45.0371 4.92773C46.6426 5.37305 47.8965 6.00586 48.7988 6.82617C49.7129 7.63477 50.3574 8.57813 50.7324 9.65625C51.1074 10.7227 51.2949 11.8711 51.2949 13.1016V16.7402C51.2949 17.584 51.4238 18.3223 51.6816 18.9551C51.9395 19.5762 52.3379 20.0566 52.877 20.3965C53.4277 20.7363 54.1426 20.9062 55.0215 20.9062V22.8926C53.3691 22.8926 52.0273 22.6289 50.9961 22.1016C49.9648 21.5625 49.209 20.8301 48.7285 19.9043C48.2598 18.9668 48.0254 17.9121 48.0254 16.7402V13.1016C48.0254 12.1406 47.9141 11.25 47.6914 10.4297C47.4688 9.59766 47.0879 8.88281 46.5488 8.28516C46.0215 7.67578 45.2891 7.22461 44.3516 6.93164ZM45.0371 39.4336L44.3516 37.4121C45.2773 37.1191 46.0039 36.668 46.5312 36.0586C47.0703 35.4609 47.4512 34.752 47.6738 33.9316C47.9082 33.1113 48.0254 32.2207 48.0254 31.2598V27.6387C48.0254 26.4551 48.2598 25.4004 48.7285 24.4746C49.209 23.5488 49.9648 22.8223 50.9961 22.2949C52.0273 21.7559 53.3691 21.4863 55.0215 21.4863V23.4551C53.709 23.4551 52.7598 23.8359 52.1738 24.5977C51.5879 25.3477 51.2949 26.3613 51.2949 27.6387V31.2598C51.2949 32.4902 51.1074 33.6387 50.7324 34.7051C50.3574 35.7832 49.7129 36.7266 48.7988 37.5352C47.8965 38.3438 46.6426 38.9766 45.0371 39.4336Z"/>
</svg>
