<svg width="213" height="56" viewBox="0 0 213 56" fill="none" xmlns="http://www.w3.org/2000/svg">
<path d="M33.248 12.472C33.248 12.824 33.152 13.176 32.96 13.528C32.8 13.88 32.512 14.344 32.096 14.92C31.712 15.496 31.184 16.248 30.512 17.176C29.872 18.072 29.056 19.272 28.064 20.776C27.04 22.344 26.08 23.832 25.184 25.24C24.32 26.616 23.552 27.864 22.88 28.984C22.24 30.072 21.728 30.984 21.344 31.72C20.992 32.456 20.816 32.968 20.816 33.256C20.816 33.448 21.008 33.576 21.392 33.64C21.776 33.704 22.224 33.736 22.736 33.736C23.056 33.736 23.488 33.736 24.032 33.736C24.608 33.704 25.2 33.672 25.808 33.64C26.448 33.608 27.072 33.592 27.68 33.592C28.32 33.56 28.864 33.544 29.312 33.544C30.176 33.544 30.832 33.72 31.28 34.072C31.76 34.392 32 35.016 32 35.944C32 35.976 31.984 36.136 31.952 36.424C31.952 36.68 31.92 36.808 31.856 36.808H31.232C30.688 36.84 30.064 36.856 29.36 36.856C28.656 36.856 27.744 36.856 26.624 36.856C25.536 36.856 24.144 36.872 22.448 36.904C20.784 36.904 18.704 36.936 16.208 37C16.048 36.904 15.856 36.728 15.632 36.472C15.408 36.184 15.2 35.88 15.008 35.56C14.816 35.208 14.64 34.888 14.48 34.6C14.352 34.28 14.288 34.024 14.288 33.832C14.288 33.768 14.64 33.24 15.344 32.248C16.08 31.256 16.992 30.024 18.08 28.552C19.168 27.048 20.352 25.416 21.632 23.656C22.912 21.864 24.096 20.152 25.184 18.52C26.272 16.888 27.168 15.432 27.872 14.152C28.608 12.84 28.976 11.928 28.976 11.416C28.976 11.16 28.88 10.984 28.688 10.888C28.528 10.76 28.08 10.696 27.344 10.696C26.992 10.696 26.592 10.712 26.144 10.744C25.728 10.744 25.2 10.76 24.56 10.792L18.032 11.08C16.976 11.08 16.256 10.792 15.872 10.216C15.52 9.64 15.312 8.856 15.248 7.864C17.84 7.608 20.4 7.432 22.928 7.336C25.488 7.208 28.064 7.096 30.656 7C30.944 7 31.232 7.24 31.52 7.72C31.84 8.168 32.128 8.696 32.384 9.304C32.64 9.912 32.848 10.52 33.008 11.128C33.168 11.736 33.248 12.184 33.248 12.472ZM0.943999 0.567997V0.471998H1.184V0.567997H0.943999ZM44.9911 34.792C44.3511 34.152 43.8231 33.176 43.4071 31.864C43.3111 32.056 43.1831 32.472 43.0231 33.112C42.8951 33.752 42.6871 34.424 42.3991 35.128C42.1111 35.8 41.7271 36.424 41.2471 37C40.7991 37.544 40.2231 37.816 39.5191 37.816C37.4711 37.816 36.0631 37.224 35.2951 36.04C34.5271 34.856 34.0791 33.112 33.9511 30.808V19.24C34.0151 19.016 34.0471 18.856 34.0471 18.76C34.0791 18.664 34.2231 18.616 34.4791 18.616C34.6391 18.616 34.9111 18.648 35.2951 18.712C35.7111 18.776 36.1271 18.872 36.5431 19C36.9591 19.096 37.3271 19.24 37.6471 19.432C37.9991 19.624 38.1751 19.848 38.1751 20.104V28.6C38.1751 29.176 38.1751 29.816 38.1751 30.52C38.2071 31.224 38.2551 31.88 38.3191 32.488C38.4151 33.064 38.5591 33.56 38.7511 33.976C38.9431 34.36 39.2151 34.552 39.5671 34.552C40.4951 34.552 41.2151 33.624 41.7271 31.768C42.2391 29.88 42.5271 26.92 42.5911 22.888C42.5911 22.632 42.5271 22.376 42.3991 22.12C42.2711 21.864 42.2071 21.56 42.2071 21.208C42.2711 20.952 42.5271 20.792 42.9751 20.728C43.4551 20.664 43.8871 20.632 44.2711 20.632C45.2311 20.632 45.9351 20.728 46.3831 20.92C46.8311 21.112 47.0551 21.688 47.0551 22.648C46.9911 23.224 46.9271 23.688 46.8631 24.04C46.8311 24.36 46.7991 24.664 46.7671 24.952C46.7671 25.208 46.7511 25.496 46.7191 25.816C46.7191 26.104 46.7191 26.536 46.7191 27.112C46.7191 27.848 46.7511 28.616 46.8151 29.416C46.8791 30.216 46.9911 30.952 47.1511 31.624C47.3111 32.296 47.5031 32.856 47.7271 33.304C47.9831 33.72 48.3031 33.928 48.6871 33.928C49.0391 33.928 49.3111 33.832 49.5031 33.64C49.6951 33.416 49.8711 33.176 50.0311 32.92C50.1911 32.664 50.3511 32.44 50.5111 32.248C50.6711 32.024 50.8951 31.912 51.1831 31.912C51.4391 31.912 51.6311 32.008 51.7591 32.2C51.8871 32.36 51.9511 32.52 51.9511 32.68C51.9511 33.288 51.7911 33.8 51.4711 34.216C51.1831 34.632 50.8151 34.968 50.3671 35.224C49.9511 35.48 49.5191 35.672 49.0711 35.8C48.6231 35.896 48.2551 35.944 47.9671 35.944C47.4231 35.944 46.9591 35.88 46.5751 35.752C46.1911 35.624 45.8071 35.432 45.4231 35.176L44.9911 34.792ZM60.4629 35.608C60.4629 35.992 60.3189 36.328 60.0309 36.616C59.7749 36.904 59.4389 37.16 59.0229 37.384C58.6389 37.608 58.2229 37.768 57.7749 37.864C57.3589 37.992 57.0069 38.056 56.7189 38.056C56.1749 38.056 55.5669 37.992 54.8949 37.864C54.2549 37.768 53.7109 37.544 53.2629 37.192C52.7509 36.776 52.3189 36.12 51.9669 35.224C51.6469 34.296 51.3909 33.208 51.1989 31.96C51.0389 30.68 50.9269 29.272 50.8629 27.736C50.7989 26.168 50.7669 24.536 50.7669 22.84C50.7669 22.136 50.7829 21.352 50.8149 20.488C50.8789 19.624 50.9429 18.728 51.0069 17.8C51.0709 16.84 51.1509 15.896 51.2469 14.968C51.3429 14.008 51.4389 13.096 51.5349 12.232C51.6309 11.624 51.7429 10.968 51.8709 10.264C51.9989 9.56 52.1269 8.888 52.2549 8.248C52.4149 7.608 52.5909 7.032 52.7829 6.52C52.9749 6.008 53.1829 5.64 53.4069 5.416C53.6629 5.16 53.9989 5 54.4149 4.936C54.8629 4.84 55.2629 4.792 55.6149 4.792C56.3509 4.792 56.9429 4.984 57.3909 5.368C57.8389 5.752 58.1749 6.28 58.3989 6.952C58.6549 7.592 58.8149 8.344 58.8789 9.208C58.9749 10.04 59.0229 10.936 59.0229 11.896C59.0229 13.368 58.9749 14.968 58.8789 16.696C58.7829 18.392 58.5749 20.104 58.2549 21.832C57.9669 23.56 57.5349 25.24 56.9589 26.872C56.4149 28.504 55.6789 29.992 54.7509 31.336C54.7829 31.784 54.8309 32.312 54.8949 32.92C54.9909 33.496 55.1189 34.04 55.2789 34.552C55.4389 35.064 55.6469 35.496 55.9029 35.848C56.1589 36.2 56.4949 36.376 56.9109 36.376C57.2949 36.376 57.5989 36.296 57.8229 36.136C58.0469 35.944 58.2389 35.736 58.3989 35.512C58.5909 35.288 58.7669 35.096 58.9269 34.936C59.1189 34.744 59.3589 34.648 59.6469 34.648C59.9669 34.648 60.1749 34.744 60.2709 34.936C60.3989 35.128 60.4629 35.352 60.4629 35.608ZM56.8629 13.048C56.8629 12.728 56.8469 12.344 56.8149 11.896C56.8149 11.448 56.7669 11.016 56.6709 10.6C56.6069 10.152 56.5109 9.784 56.3829 9.496C56.2549 9.176 56.0789 9.016 55.8549 9.016C55.5349 9.016 55.2789 9.464 55.0869 10.36C54.8949 11.256 54.7349 12.44 54.6069 13.912C54.5109 15.352 54.4309 17 54.3669 18.856C54.3349 20.68 54.3189 22.536 54.3189 24.424C54.3189 24.968 54.3189 25.544 54.3189 26.152C54.3189 26.728 54.3509 27.24 54.4149 27.688C55.4709 25.16 56.1429 22.712 56.4309 20.344C56.7189 17.976 56.8629 15.544 56.8629 13.048ZM76.5523 25.192C76.1043 26.056 75.6883 26.968 75.3043 27.928C74.9203 28.888 74.6323 29.64 74.4403 30.184C74.4083 30.344 74.3123 30.68 74.1523 31.192C74.0243 31.704 73.8643 32.28 73.6723 32.92C73.5123 33.528 73.3683 34.136 73.2403 34.744C73.1123 35.352 73.0483 35.848 73.0483 36.232C73.0483 36.392 72.9043 36.536 72.6163 36.664C72.3283 36.792 71.9603 36.856 71.5123 36.856C70.8083 36.856 70.2483 36.76 69.8323 36.568C69.4163 36.376 69.0963 36.072 68.8723 35.656C68.6803 35.208 68.5523 34.632 68.4883 33.928C68.4563 33.224 68.4403 32.376 68.4403 31.384V27.784C68.4403 27.528 68.4243 27.272 68.3923 27.016C68.3923 26.76 68.3443 26.6 68.2483 26.536C68.0883 26.6 67.8803 27.016 67.6243 27.784C67.4003 28.552 67.1763 29.496 66.9523 30.616C66.7603 31.704 66.5843 32.856 66.4243 34.072C66.2643 35.288 66.1843 36.376 66.1843 37.336C66.1843 37.688 65.9923 37.896 65.6083 37.96C65.2563 38.024 64.8563 38.056 64.4083 38.056C64.2803 38.056 64.0563 38.024 63.7363 37.96C63.4483 37.928 63.1443 37.88 62.8242 37.816C62.5363 37.752 62.2643 37.656 62.0083 37.528C61.7523 37.432 61.5923 37.304 61.5283 37.144C61.3683 36.728 61.2403 36.04 61.1443 35.08C61.0803 34.12 61.0483 32.632 61.0483 30.616C61.0483 29.432 61.0643 28.056 61.0963 26.488C61.1603 24.92 61.2243 23.08 61.2883 20.968C61.2883 20.68 61.2723 20.312 61.2402 19.864C61.2083 19.384 61.1923 19.112 61.1923 19.048C61.1923 18.792 61.2883 18.648 61.4803 18.616C61.7043 18.552 61.8643 18.52 61.9603 18.52C62.1843 18.52 62.4403 18.552 62.7283 18.616C63.0483 18.648 63.3523 18.696 63.6403 18.76C63.9603 18.824 64.2483 18.904 64.5043 19C64.7603 19.064 64.9363 19.128 65.0323 19.192V30.76C65.1923 30.12 65.3683 29.384 65.5603 28.552C65.7843 27.688 66.0243 26.84 66.2803 26.008C66.5683 25.176 66.8723 24.408 67.1923 23.704C67.5123 23 67.8483 22.488 68.2003 22.168C68.3283 22.072 68.5683 22.008 68.9203 21.976C69.2723 21.912 69.5603 21.88 69.7843 21.88C69.9443 21.88 70.1363 21.912 70.3603 21.976C70.6163 22.008 70.8563 22.072 71.0803 22.168C71.3043 22.264 71.4963 22.392 71.6562 22.552C71.8483 22.68 71.9603 22.84 71.9922 23.032V30.808V31.24C71.9922 31.432 72.0243 31.528 72.0883 31.528C72.1523 31.528 72.3283 31.096 72.6163 30.232C72.9363 29.368 73.3043 28.344 73.7203 27.16C74.1363 25.976 74.5843 24.76 75.0643 23.512C75.5443 22.264 75.9763 21.272 76.3603 20.536C76.4243 20.408 76.6323 20.344 76.9843 20.344C77.3683 20.312 77.7043 20.296 77.9923 20.296C78.2163 20.296 78.5203 20.376 78.9043 20.536C79.2883 20.664 79.6563 20.856 80.0083 21.112C80.3923 21.368 80.7123 21.656 80.9683 21.976C81.2563 22.296 81.4003 22.632 81.4003 22.984C81.4003 23.048 81.3043 23.24 81.1123 23.56C80.9203 23.848 80.7923 24.152 80.7283 24.472C80.5043 25.368 80.3443 26.248 80.2483 27.112C80.1843 27.976 80.1523 29.08 80.1523 30.424C80.1523 31 80.1683 31.576 80.2003 32.152C80.2643 32.728 80.3443 33.256 80.4403 33.736C80.5683 34.184 80.7283 34.552 80.9203 34.84C81.1123 35.128 81.3683 35.272 81.6883 35.272C82.1363 35.272 82.5363 35.128 82.8883 34.84C83.2403 34.52 83.5443 34.104 83.8003 33.592C84.0563 33.08 84.2803 32.488 84.4723 31.816C84.6643 31.112 84.8243 30.392 84.9523 29.656C85.1123 28.888 85.4003 28.504 85.8163 28.504C86.0723 28.504 86.2323 28.568 86.2963 28.696C86.3923 28.824 86.4403 29.112 86.4403 29.56C86.4403 29.816 86.4243 29.992 86.3923 30.088C86.3603 30.504 86.2163 31.16 85.9603 32.056C85.7363 32.92 85.4003 33.8 84.9523 34.696C84.5363 35.56 84.0083 36.328 83.3683 37C82.7283 37.64 81.9923 37.96 81.1603 37.96C80.1683 37.96 79.3523 37.72 78.7123 37.24C78.0723 36.792 77.5763 36.184 77.2243 35.416C76.8723 34.616 76.6163 33.704 76.4563 32.68C76.3283 31.656 76.2643 30.584 76.2643 29.464V29.128L76.5523 25.192ZM99.8109 36.712C99.8109 36.968 99.7469 37.144 99.6189 37.24C99.4909 37.336 99.3469 37.4 99.1869 37.432C99.0269 37.464 98.8509 37.48 98.6589 37.48C98.4989 37.512 98.3869 37.576 98.3229 37.672V45.304C98.3229 45.912 98.3069 46.568 98.2749 47.272C98.2749 48.008 98.2109 48.728 98.0829 49.432C97.9549 50.136 97.7469 50.792 97.4589 51.4C97.2029 52.008 96.8189 52.504 96.3069 52.888C96.2749 52.92 96.1629 52.984 95.9709 53.08C95.8109 53.208 95.6189 53.336 95.3949 53.464C95.2029 53.624 95.0109 53.768 94.8189 53.896C94.6269 54.024 94.4989 54.104 94.4349 54.136C93.9869 54.424 93.6189 54.76 93.3309 55.144C93.0749 55.528 92.7389 55.72 92.3229 55.72C92.1629 55.72 92.0349 55.704 91.9389 55.672C91.8749 55.672 91.7949 55.656 91.6989 55.624C91.6349 55.592 91.5229 55.544 91.3629 55.48C91.2349 55.448 91.0429 55.4 90.7869 55.336C89.3469 55.048 88.3389 54.616 87.7629 54.04C87.2189 53.496 86.9469 52.6 86.9469 51.352C86.9469 50.072 87.1389 48.744 87.5229 47.368C87.9069 45.992 88.4349 44.664 89.1069 43.384C89.7789 42.104 90.5789 40.904 91.5069 39.784C92.4349 38.696 93.4429 37.768 94.5309 37V30.856C94.3709 31.464 94.1789 32.168 93.9549 32.968C93.7309 33.768 93.4429 34.52 93.0909 35.224C92.7709 35.928 92.3869 36.52 91.9389 37C91.4909 37.48 90.9629 37.72 90.3549 37.72C89.8109 37.72 89.2189 37.528 88.5789 37.144C87.9389 36.76 87.3629 36.376 86.8509 35.992C86.4669 35.672 86.1629 35.176 85.9389 34.504C85.7149 33.8 85.5389 33.064 85.4109 32.296C85.3149 31.528 85.2509 30.792 85.2189 30.088C85.1869 29.384 85.1709 28.872 85.1709 28.552C85.1709 27.304 85.1869 26.008 85.2189 24.664C85.2509 23.288 85.3309 22.024 85.4589 20.872C85.5869 19.72 85.7789 18.776 86.0349 18.04C86.2909 17.272 86.6269 16.888 87.0429 16.888C87.1709 16.888 87.4269 16.92 87.8109 16.984C88.1949 17.048 88.5949 17.16 89.0109 17.32C89.4269 17.448 89.7949 17.64 90.1149 17.896C90.4349 18.12 90.5949 18.408 90.5949 18.76C90.5949 18.856 90.5469 18.936 90.4509 19C90.3869 19.032 90.3229 19.08 90.2589 19.144C90.0669 19.272 89.8909 19.528 89.7309 19.912C89.5709 20.264 89.4269 20.792 89.2989 21.496C89.2029 22.168 89.1229 23.064 89.0589 24.184C88.9949 25.272 88.9629 26.616 88.9629 28.216C88.9629 30.616 89.0429 32.328 89.2029 33.352C89.3949 34.376 89.7629 34.888 90.3069 34.888C90.8829 34.888 91.3949 34.456 91.8429 33.592C92.3229 32.728 92.7549 31.592 93.1389 30.184C93.5229 28.776 93.8749 27.176 94.1949 25.384C94.5149 23.592 94.8029 21.784 95.0589 19.96C95.3789 19.96 95.7309 19.976 96.1149 20.008C96.5309 20.04 96.9149 20.104 97.2669 20.2C97.6509 20.296 97.9709 20.424 98.2269 20.584C98.4829 20.712 98.6109 20.904 98.6109 21.16C98.6109 21.32 98.5149 21.432 98.3229 21.496V35.704C98.6749 35.736 99.0109 35.816 99.3309 35.944C99.6509 36.04 99.8109 36.296 99.8109 36.712ZM94.5309 39.064C93.7629 39.672 93.0749 40.456 92.4669 41.416C91.8589 42.376 91.3309 43.384 90.8829 44.44C90.4669 45.528 90.1469 46.6 89.9229 47.656C89.6989 48.712 89.5869 49.624 89.5869 50.392C89.5869 50.552 89.5869 50.808 89.5869 51.16C89.6189 51.544 89.6989 51.912 89.8269 52.264C89.9549 52.616 90.1309 52.92 90.3549 53.176C90.6109 53.464 90.9789 53.608 91.4589 53.608C92.1629 53.608 92.7069 53.224 93.0909 52.456C93.5069 51.72 93.8109 50.84 94.0029 49.816C94.2269 48.824 94.3709 47.816 94.4349 46.792C94.4989 45.8 94.5309 45.064 94.5309 44.584V44.392V39.064ZM132.897 36.568C132.705 36.76 132.305 37 131.697 37.288C131.089 37.576 130.257 37.72 129.201 37.72C128.497 37.72 127.905 37.56 127.425 37.24C126.977 36.92 126.753 36.168 126.753 34.984C126.689 33.704 126.609 32.504 126.513 31.384C126.417 30.232 126.305 29.08 126.177 27.928C125.345 27.96 124.433 27.976 123.441 27.976C122.449 27.976 121.585 28.008 120.849 28.072C120.465 29.48 120.001 30.824 119.457 32.104C118.913 33.384 118.225 34.52 117.393 35.512C116.593 36.504 115.617 37.288 114.465 37.864C113.345 38.44 112.001 38.728 110.433 38.728C109.825 38.728 109.217 38.648 108.609 38.488C107.969 38.36 107.393 38.12 106.881 37.768C106.369 37.448 105.953 37.016 105.633 36.472C105.313 35.896 105.153 35.192 105.153 34.36C105.153 33.976 105.281 33.64 105.537 33.352C105.793 33.032 106.113 32.872 106.497 32.872C107.137 32.872 107.553 33.096 107.745 33.544C107.937 33.96 108.129 34.44 108.321 34.984C108.481 35.496 108.769 35.976 109.185 36.424C109.569 36.84 110.289 37.048 111.345 37.048C112.113 37.048 112.817 36.856 113.457 36.472C114.129 36.088 114.737 35.592 115.281 34.984C115.825 34.376 116.289 33.704 116.673 32.968C117.089 32.232 117.425 31.512 117.681 30.808C117.969 29.976 118.161 29.4 118.257 29.08C118.353 28.76 118.433 28.52 118.497 28.36C118.497 28.296 118.449 28.264 118.353 28.264C117.521 28.36 116.801 28.44 116.193 28.504C115.617 28.536 115.073 28.552 114.561 28.552C113.889 28.552 113.329 28.52 112.881 28.456C112.433 28.36 112.209 28.056 112.209 27.544C112.209 27.256 112.337 27.032 112.593 26.872C112.881 26.68 113.281 26.552 113.793 26.488C114.305 26.392 114.897 26.328 115.569 26.296C116.273 26.232 117.057 26.168 117.921 26.104C118.273 26.072 118.577 26.056 118.833 26.056C119.089 26.024 119.233 25.96 119.265 25.864C119.553 24.968 119.825 24.056 120.081 23.128C120.337 22.2 120.593 21.272 120.849 20.344C121.265 18.712 121.633 16.936 121.953 15.016C122.273 13.064 122.433 11.16 122.433 9.304C122.433 8.984 122.417 8.728 122.385 8.536C122.385 8.312 122.385 8.152 122.385 8.056C122.545 7.992 122.753 7.96 123.009 7.96C123.265 7.96 123.521 7.928 123.777 7.864C124.033 7.8 124.337 7.704 124.689 7.576C125.073 7.416 125.505 7.336 125.985 7.336C126.145 7.336 126.401 7.384 126.753 7.48C127.137 7.544 127.521 7.656 127.905 7.816C128.289 7.944 128.625 8.104 128.913 8.296C129.233 8.456 129.393 8.632 129.393 8.824V16.456C129.393 18.984 129.521 21.432 129.777 23.8C130.033 26.136 130.337 28.232 130.689 30.088C131.041 31.912 131.409 33.416 131.793 34.6C132.209 35.752 132.577 36.408 132.897 36.568ZM125.889 25.96C125.825 25.256 125.729 24.424 125.601 23.464C125.505 22.504 125.377 21.528 125.217 20.536C125.057 19.544 124.897 18.584 124.737 17.656C124.577 16.728 124.417 15.96 124.257 15.352C124.161 15.608 124.017 16.04 123.825 16.648C123.665 17.256 123.473 17.944 123.249 18.712C123.025 19.48 122.801 20.28 122.577 21.112C122.385 21.944 122.193 22.712 122.001 23.416C121.809 24.12 121.649 24.712 121.521 25.192C121.425 25.64 121.377 25.896 121.377 25.96H125.889ZM149.371 36.664C149.339 36.696 149.275 36.76 149.179 36.856C149.083 36.952 148.939 37 148.747 37H137.467C136.987 37 136.523 36.824 136.075 36.472C135.627 36.12 135.227 35.704 134.875 35.224C134.555 34.712 134.283 34.184 134.059 33.64C133.867 33.096 133.771 32.632 133.771 32.248C135.019 31.352 136.235 30.36 137.419 29.272C138.603 28.152 139.643 27.112 140.539 26.152C141.467 25.16 142.203 24.312 142.747 23.608C143.323 22.904 143.611 22.504 143.611 22.408V22.36C143.611 22.232 143.547 22.104 143.419 21.976C143.323 21.816 142.955 21.736 142.315 21.736H141.931L135.595 22.024C135.275 21.768 135.003 21.48 134.779 21.16C134.587 20.84 134.427 20.52 134.299 20.2C134.171 19.88 134.075 19.608 134.011 19.384C133.947 19.128 133.915 18.968 133.915 18.904L133.963 18.52H139.819L145.531 18.376C145.979 18.376 146.347 18.584 146.635 19C146.923 19.384 147.147 19.864 147.307 20.44C147.499 20.984 147.627 21.528 147.691 22.072C147.787 22.616 147.835 23.032 147.835 23.32C147.835 23.384 147.835 23.48 147.835 23.608C147.835 23.704 147.819 23.768 147.787 23.8C146.699 24.568 145.691 25.432 144.763 26.392C143.835 27.352 143.035 28.296 142.363 29.224C141.691 30.12 141.163 30.936 140.779 31.672C140.395 32.376 140.203 32.872 140.203 33.16C140.203 33.288 140.331 33.4 140.587 33.496C140.875 33.56 141.227 33.624 141.643 33.688C142.091 33.72 142.587 33.752 143.131 33.784C143.675 33.784 144.219 33.784 144.763 33.784H148.363C148.715 33.784 148.971 34.04 149.131 34.552C149.291 35.032 149.371 35.496 149.371 35.944V36.664ZM169.38 30.184C169.348 30.632 169.204 31.272 168.948 32.104C168.724 32.904 168.372 33.704 167.892 34.504C167.444 35.272 166.852 35.96 166.116 36.568C165.412 37.144 164.548 37.432 163.524 37.432C162.532 37.432 161.732 37.144 161.124 36.568C160.548 35.992 160.1 35.208 159.78 34.216C159.492 33.192 159.3 31.976 159.204 30.568C159.14 29.16 159.108 27.624 159.108 25.96C159.108 25.672 159.108 25.32 159.108 24.904C159.108 24.456 159.124 24.072 159.156 23.752C158.772 24.456 158.388 25.352 158.004 26.44C157.62 27.496 157.268 28.632 156.948 29.848C156.66 31.064 156.42 32.312 156.228 33.592C156.036 34.84 155.924 36.024 155.892 37.144C155.572 37.208 155.22 37.288 154.836 37.384C154.484 37.48 154.068 37.528 153.588 37.528C153.396 37.528 153.172 37.512 152.916 37.48C152.66 37.448 152.404 37.384 152.148 37.288C151.892 37.192 151.668 37.064 151.476 36.904C151.316 36.712 151.236 36.472 151.236 36.184C151.236 36.12 151.284 35.976 151.38 35.752C151.508 35.528 151.572 35.08 151.572 34.408V6.808C151.572 6.36 151.508 6.056 151.38 5.896C151.284 5.736 151.236 5.544 151.236 5.32C151.236 5.192 151.348 5.096 151.572 5.032C151.796 4.936 152.052 4.872 152.34 4.84C152.628 4.776 152.916 4.744 153.204 4.744C153.524 4.712 153.78 4.696 153.972 4.696C154.804 4.696 155.652 4.872 156.516 5.224C156.356 6.088 156.196 7.24 156.036 8.68C155.908 10.088 155.78 11.56 155.652 13.096C155.524 14.6 155.428 16.056 155.364 17.464C155.3 18.84 155.268 19.912 155.268 20.68C155.268 20.776 155.268 20.904 155.268 21.064C155.268 21.192 155.252 21.56 155.22 22.168C155.22 22.744 155.204 23.656 155.172 24.904C155.172 26.152 155.156 27.912 155.124 30.184C155.124 30.152 155.188 29.848 155.316 29.272C155.476 28.696 155.668 27.976 155.892 27.112C156.116 26.248 156.372 25.32 156.66 24.328C156.98 23.336 157.3 22.424 157.62 21.592C157.972 20.728 158.324 20.024 158.676 19.48C159.028 18.904 159.364 18.616 159.684 18.616C160.036 18.616 160.516 18.696 161.124 18.856C161.764 18.984 162.164 19.224 162.324 19.576C162.452 19.96 162.58 20.232 162.708 20.392C162.868 20.552 162.996 20.68 163.092 20.776C163.22 20.872 163.316 20.968 163.38 21.064C163.476 21.16 163.524 21.304 163.524 21.496C163.492 21.592 163.412 21.912 163.284 22.456C163.188 23 163.076 23.688 162.948 24.52C162.852 25.32 162.756 26.216 162.66 27.208C162.564 28.168 162.516 29.128 162.516 30.088C162.516 31.368 162.628 32.472 162.852 33.4C163.076 34.328 163.508 34.792 164.148 34.792C164.788 34.792 165.316 34.6 165.732 34.216C166.148 33.832 166.484 33.352 166.74 32.776C167.028 32.2 167.236 31.592 167.364 30.952C167.524 30.28 167.652 29.688 167.748 29.176C167.908 28.504 168.148 28.168 168.468 28.168C168.82 28.168 169.06 28.296 169.188 28.552C169.348 28.808 169.428 29.144 169.428 29.56L169.38 30.184ZM186.116 31.768C186.052 32.216 185.892 32.744 185.636 33.352C185.38 33.96 185.044 34.552 184.628 35.128C184.244 35.672 183.78 36.136 183.236 36.52C182.724 36.904 182.148 37.096 181.508 37.096C180.548 37.096 179.7 36.728 178.964 35.992C178.26 35.256 177.828 34.216 177.668 32.872C177.476 33.384 177.252 33.976 176.996 34.648C176.74 35.32 176.42 35.944 176.036 36.52C175.652 37.096 175.204 37.576 174.692 37.96C174.212 38.376 173.636 38.584 172.964 38.584C172.772 38.584 172.628 38.568 172.532 38.536C172.436 38.504 172.324 38.456 172.196 38.392C172.1 38.36 171.972 38.328 171.812 38.296C171.684 38.264 171.492 38.248 171.236 38.248C170.468 38.248 169.812 37.992 169.268 37.48C168.756 37 168.34 36.376 168.02 35.608C167.7 34.84 167.46 34.008 167.3 33.112C167.172 32.184 167.108 31.32 167.108 30.52C167.108 28.6 167.204 26.776 167.396 25.048C167.62 23.32 167.972 21.8 168.452 20.488C168.932 19.144 169.556 18.088 170.324 17.32C171.092 16.52 172.02 16.12 173.108 16.12C173.748 16.12 174.228 16.184 174.548 16.312C174.9 16.408 175.22 16.536 175.508 16.696C175.796 16.824 176.1 16.968 176.42 17.128C176.772 17.288 177.252 17.416 177.86 17.512C178.532 17.896 178.996 18.36 179.252 18.904C179.54 19.416 179.716 19.976 179.78 20.584C179.876 21.192 179.908 21.832 179.876 22.504C179.844 23.144 179.876 23.784 179.972 24.424C179.972 24.456 180.036 24.504 180.164 24.568C180.324 24.632 180.5 24.712 180.692 24.808C180.884 24.872 181.044 24.984 181.172 25.144C181.332 25.272 181.412 25.448 181.412 25.672V25.864C181.092 26.696 180.9 27.432 180.836 28.072C180.772 28.712 180.74 29.48 180.74 30.376C180.74 30.824 180.756 31.32 180.788 31.864C180.852 32.376 180.932 32.872 181.028 33.352C181.156 33.8 181.332 34.184 181.556 34.504C181.78 34.792 182.068 34.936 182.42 34.936C182.804 34.936 183.14 34.744 183.428 34.36C183.748 33.976 184.004 33.544 184.196 33.064C184.42 32.552 184.596 32.04 184.724 31.528C184.884 31.016 184.98 30.632 185.012 30.376C185.076 29.992 185.236 29.8 185.492 29.8C185.652 29.8 185.796 29.896 185.924 30.088C186.084 30.248 186.164 30.552 186.164 31C186.164 31.128 186.164 31.256 186.164 31.384C186.164 31.48 186.148 31.608 186.116 31.768ZM177.236 23.992C177.236 23.64 177.204 23.224 177.14 22.744C177.076 22.264 176.964 21.816 176.804 21.4C176.644 20.984 176.404 20.632 176.084 20.344C175.764 20.056 175.332 19.912 174.788 19.912C173.892 19.912 173.156 20.328 172.58 21.16C172.036 21.96 171.604 22.92 171.284 24.04C170.964 25.128 170.756 26.264 170.66 27.448C170.564 28.6 170.516 29.512 170.516 30.184C170.516 30.696 170.532 31.32 170.564 32.056C170.628 32.76 170.724 33.432 170.852 34.072C170.98 34.712 171.156 35.256 171.38 35.704C171.636 36.152 171.956 36.376 172.34 36.376C173.268 36.376 173.972 36.024 174.452 35.32C174.964 34.584 175.348 33.688 175.604 32.632C175.86 31.544 176.036 30.392 176.132 29.176C176.26 27.928 176.372 26.792 176.468 25.768C176.532 25.224 176.676 24.888 176.9 24.76C177.124 24.6 177.236 24.488 177.236 24.424V23.992ZM198.832 30.232C198.832 30.456 198.752 31 198.592 31.864C198.464 32.696 198.208 33.592 197.824 34.552C197.472 35.48 196.976 36.312 196.336 37.048C195.728 37.784 194.944 38.152 193.984 38.152C192.96 38.152 192.144 37.784 191.536 37.048C190.928 36.344 190.464 35.496 190.144 34.504C189.824 33.48 189.616 32.424 189.52 31.336C189.424 30.216 189.376 29.288 189.376 28.552C189.376 27.72 189.424 26.888 189.52 26.056C189.616 25.192 189.68 24.344 189.712 23.512C189.712 23.256 189.584 23.096 189.328 23.032C189.072 22.968 188.832 22.936 188.608 22.936C188.224 22.936 187.984 22.984 187.888 23.08C187.792 23.176 187.728 23.288 187.696 23.416L187.504 24.952C187.376 25.976 187.232 26.968 187.072 27.928C186.944 28.856 186.784 29.688 186.592 30.424C186.432 31.128 186.224 31.704 185.968 32.152C185.744 32.568 185.472 32.776 185.152 32.776H185.104C184.976 32.776 184.848 32.744 184.72 32.68C184.624 32.616 184.576 32.456 184.576 32.2C184.576 32.072 184.608 31.88 184.672 31.624C184.928 30.504 185.088 29.576 185.152 28.84C185.216 28.104 185.264 27.448 185.296 26.872V26.536C185.296 26.376 185.296 26.184 185.296 25.96C185.328 25.736 185.344 25.464 185.344 25.144V23.896C185.344 23.544 185.344 23.176 185.344 22.792C185.344 22.408 185.312 21.992 185.248 21.544L185.104 18.712C185.104 18.52 185.184 18.344 185.344 18.184C185.504 18.024 185.712 17.88 185.968 17.752C186.224 17.624 186.496 17.528 186.784 17.464C187.072 17.4 187.328 17.368 187.552 17.368C188.096 17.368 188.368 17.72 188.368 18.424V18.664L188.32 19.72V20.008C188.32 20.232 188.368 20.376 188.464 20.44C188.56 20.472 188.752 20.52 189.04 20.584H189.184C189.44 20.616 189.856 20.648 190.432 20.68C191.008 20.712 191.584 20.776 192.16 20.872C192.736 20.968 193.232 21.128 193.648 21.352C194.096 21.544 194.32 21.832 194.32 22.216C194.32 22.344 194.288 22.536 194.224 22.792C194.16 23.016 194.08 23.256 193.984 23.512C193.888 23.736 193.808 23.944 193.744 24.136C193.68 24.328 193.648 24.456 193.648 24.52C193.072 26.728 192.784 29.032 192.784 31.432C192.784 31.624 192.8 31.976 192.832 32.488C192.864 33 192.928 33.528 193.024 34.072C193.12 34.616 193.264 35.096 193.456 35.512C193.648 35.928 193.888 36.136 194.176 36.136C194.656 36.136 195.088 35.848 195.472 35.272C195.856 34.664 196.192 33.976 196.48 33.208C196.768 32.408 196.992 31.608 197.152 30.808C197.344 30.008 197.472 29.416 197.536 29.032C197.6 28.68 197.696 28.472 197.824 28.408C197.984 28.312 198.128 28.264 198.256 28.264C198.704 28.264 198.928 28.552 198.928 29.128C198.928 29.192 198.912 29.368 198.88 29.656C198.88 29.912 198.864 30.104 198.832 30.232ZM212.077 36.712C212.077 36.968 212.013 37.144 211.885 37.24C211.757 37.336 211.613 37.4 211.453 37.432C211.293 37.464 211.117 37.48 210.924 37.48C210.765 37.512 210.653 37.576 210.589 37.672V45.304C210.589 45.912 210.573 46.568 210.541 47.272C210.541 48.008 210.477 48.728 210.349 49.432C210.221 50.136 210.013 50.792 209.725 51.4C209.469 52.008 209.085 52.504 208.573 52.888C208.541 52.92 208.429 52.984 208.237 53.08C208.077 53.208 207.885 53.336 207.661 53.464C207.469 53.624 207.277 53.768 207.085 53.896C206.893 54.024 206.765 54.104 206.701 54.136C206.253 54.424 205.885 54.76 205.597 55.144C205.341 55.528 205.005 55.72 204.589 55.72C204.429 55.72 204.301 55.704 204.205 55.672C204.141 55.672 204.061 55.656 203.965 55.624C203.901 55.592 203.789 55.544 203.629 55.48C203.501 55.448 203.309 55.4 203.053 55.336C201.613 55.048 200.605 54.616 200.029 54.04C199.485 53.496 199.213 52.6 199.213 51.352C199.213 50.072 199.405 48.744 199.789 47.368C200.173 45.992 200.701 44.664 201.373 43.384C202.045 42.104 202.845 40.904 203.773 39.784C204.701 38.696 205.709 37.768 206.797 37V30.856C206.637 31.464 206.445 32.168 206.221 32.968C205.997 33.768 205.709 34.52 205.357 35.224C205.037 35.928 204.653 36.52 204.205 37C203.757 37.48 203.229 37.72 202.621 37.72C202.077 37.72 201.485 37.528 200.845 37.144C200.205 36.76 199.629 36.376 199.117 35.992C198.733 35.672 198.429 35.176 198.205 34.504C197.981 33.8 197.805 33.064 197.677 32.296C197.581 31.528 197.517 30.792 197.485 30.088C197.453 29.384 197.437 28.872 197.437 28.552C197.437 27.304 197.453 26.008 197.485 24.664C197.517 23.288 197.597 22.024 197.725 20.872C197.853 19.72 198.045 18.776 198.301 18.04C198.557 17.272 198.893 16.888 199.309 16.888C199.437 16.888 199.693 16.92 200.077 16.984C200.461 17.048 200.861 17.16 201.277 17.32C201.693 17.448 202.061 17.64 202.381 17.896C202.701 18.12 202.861 18.408 202.861 18.76C202.861 18.856 202.813 18.936 202.717 19C202.653 19.032 202.589 19.08 202.525 19.144C202.333 19.272 202.157 19.528 201.997 19.912C201.837 20.264 201.693 20.792 201.565 21.496C201.469 22.168 201.389 23.064 201.325 24.184C201.261 25.272 201.229 26.616 201.229 28.216C201.229 30.616 201.309 32.328 201.469 33.352C201.661 34.376 202.029 34.888 202.573 34.888C203.149 34.888 203.661 34.456 204.109 33.592C204.589 32.728 205.021 31.592 205.405 30.184C205.789 28.776 206.141 27.176 206.461 25.384C206.781 23.592 207.069 21.784 207.325 19.96C207.645 19.96 207.997 19.976 208.381 20.008C208.797 20.04 209.181 20.104 209.533 20.2C209.917 20.296 210.237 20.424 210.493 20.584C210.749 20.712 210.877 20.904 210.877 21.16C210.877 21.32 210.781 21.432 210.589 21.496V35.704C210.941 35.736 211.277 35.816 211.597 35.944C211.917 36.04 212.077 36.296 212.077 36.712ZM206.797 39.064C206.029 39.672 205.341 40.456 204.733 41.416C204.125 42.376 203.597 43.384 203.148 44.44C202.733 45.528 202.413 46.6 202.189 47.656C201.965 48.712 201.853 49.624 201.853 50.392C201.853 50.552 201.853 50.808 201.853 51.16C201.885 51.544 201.965 51.912 202.093 52.264C202.221 52.616 202.397 52.92 202.621 53.176C202.877 53.464 203.245 53.608 203.725 53.608C204.429 53.608 204.973 53.224 205.357 52.456C205.773 51.72 206.077 50.84 206.269 49.816C206.493 48.824 206.637 47.816 206.701 46.792C206.765 45.8 206.797 45.064 206.797 44.584V44.392V39.064Z" fill="white"/>
</svg>
